<?xml version="1.0" encoding="utf-8"?>
<!-- Generator: Adobe Illustrator 24.2.3, SVG Export Plug-In . SVG Version: 6.00 Build 0)  -->
<svg version="1.1" id="Layer_1" xmlns="http://www.w3.org/2000/svg" xmlns:xlink="http://www.w3.org/1999/xlink" x="0px" y="0px"
	 viewBox="0 0 595.9 696" style="enable-background:new 0 0 595.9 696;" xml:space="preserve">
<style type="text/css">
	.st0{fill:#0C2B34;}
	.st1{fill:#E6E6E6;}
	.st2{fill:#F9B099;}
	.st3{fill:#2F6B99;}
	.st4{fill:none;stroke:#F6917A;stroke-width:5.0034;stroke-linecap:round;stroke-linejoin:round;stroke-miterlimit:10;}
	.st5{fill:#F6917A;}
	.st6{fill:none;stroke:#0C2B34;stroke-width:6.4857;stroke-linecap:round;stroke-linejoin:round;stroke-miterlimit:10;}
	.st7{fill:#182040;}
	.st8{fill:none;stroke:#BED8E6;stroke-width:4.989;stroke-linecap:round;stroke-linejoin:round;stroke-miterlimit:10;}
	.st9{fill:none;stroke:#182040;stroke-width:4.989;stroke-linecap:round;stroke-linejoin:round;stroke-miterlimit:10;}
	.st10{fill:none;stroke:#182040;stroke-width:2.4945;stroke-miterlimit:10;}
	.st11{fill:none;stroke:#182040;stroke-width:2.4945;stroke-linecap:round;stroke-linejoin:round;stroke-miterlimit:10;}
	.st12{fill:#80AABF;}
	.st13{fill:#93C3DA;}
	.st14{fill:#5A99B3;}
	.st15{fill:none;stroke:#182040;stroke-width:2.4945;stroke-linecap:round;stroke-miterlimit:10;}
</style>
<g>
	
		<image style="overflow:visible;opacity:0.25;enable-background:new    ;" width="107" height="222" xlink:href="6A771215.png"  transform="matrix(-1 0 0 1 354 27)">
	</image>
	<g>
		<g>
			<path class="st0" d="M279.2,184.2c-1-3.3-1.8-6.3-2.5-8.4c-11.6-36.6-19.2-125.6,23.8-137.1c51.5-13.8,42.2,67.7,42.9,90.7
				c0.8,26.5,0.2,54.9-12.8,78.5c-4.9,8.9-16.3,22.1-27,20.2C291.8,225.9,283.8,200.2,279.2,184.2z"/>
		</g>
	</g>
</g>
<g>
	
		<image style="overflow:visible;opacity:0.25;enable-background:new    ;" width="265" height="330" xlink:href="6A771217.png"  transform="matrix(-1 0 0 1 604 282)">
	</image>
	<g>
		<g>
			
				<image style="overflow:visible;opacity:0.25;enable-background:new    ;" width="1003" height="1271" xlink:href="6A771212.png"  transform="matrix(-0.2376 0 0 0.1944 595.2417 317.4783)">
			</image>
			<g>
				<path class="st1" d="M453,301.5C349.1,279,382,370,382,370l142.3,202c35.3,13.1,58.1-8.6,58.1-8.6c9.8-33.1-10.2-83.6-10.2-83.6
					l-55-113.6C497.5,308,453.1,301.5,453,301.5z"/>
			</g>
		</g>
	</g>
</g>
<g>
	
		<image style="overflow:visible;opacity:0.25;enable-background:new    ;" width="72" height="91" xlink:href="6A771213.png"  transform="matrix(-1 0 0 1 330 121)">
	</image>
	<g>
		<g>
			<path class="st2" d="M278.4,156.2c-0.2,13.1,7.1,27.9,18.8,33.3c15.9,7.4,22.1-7.3,22.1-21.6c0-11.5-5-31.4-18.1-35.5
				C288.9,128.6,278.5,145.5,278.4,156.2z"/>
		</g>
	</g>
</g>
<g>
	
		<image style="overflow:visible;opacity:0.25;enable-background:new    ;" width="118" height="140" xlink:href="6A77121D.png"  transform="matrix(-1 0 0 1 396 169)">
	</image>
	<g>
		<g>
			<polygon class="st2" points="298.5,179.8 385.7,179.8 385.6,288.2 298.4,288.1 			"/>
		</g>
	</g>
</g>
<g>
	
		<image style="display:none;overflow:visible;opacity:0.25;enable-background:new    ;" width="104" height="126" xlink:href="6A77121F.png"  transform="matrix(-1 0 0 1 396 169)">
	</image>
	<g>
		<path class="st2" d="M325.1,239.8c-8.7-18.3-13.9-36.9-12.5-60l73.1,0.1l-0.1,94.2C362.6,270.5,334.4,259.3,325.1,239.8z"/>
	</g>
</g>
<g>
	
		<image style="overflow:visible;opacity:0.25;enable-background:new    ;" width="195" height="59" xlink:href="6A771210.png"  transform="matrix(-1 0 0 1 431 265)">
	</image>
	<g>
		<g>
			<polygon class="st2" points="256.9,303.5 301.2,275.9 383.1,275.9 420,303.5 			"/>
		</g>
	</g>
</g>
<g>
	
		<image style="overflow:visible;opacity:0.25;enable-background:new    ;" width="368" height="339" xlink:href="6A771211.png"  transform="matrix(-1 0 0 1 508 260)">
	</image>
	<g>
		<path class="st3" d="M497.5,576.2c-25.8,6.2-202.7-3.5-228.9,0H168.3c4.8-37.6-0.7-37.5,11.3-74.2l-18-154.2
			c-6.3-30.8,26.8-40.8,26.8-40.8l109.9-36.6c46.4,28.6,87.2,3,87.2,3l80.2,33.3c0,0,26.1,12.2,32,51.7l-8.9,161.2"/>
	</g>
</g>
<g>
	
		<image style="overflow:visible;opacity:0.25;enable-background:new    ;" width="45" height="96" xlink:href="6A771216.png"  transform="matrix(-1 0 0 1 513 509)">
	</image>
	<g>
		<path class="st3" d="M488.6,519.6c0.9,41.5,13.1,23.7,14,65.1"/>
	</g>
</g>
<g>
	
		<image style="overflow:visible;opacity:0.25;enable-background:new    ;" width="193" height="257" xlink:href="63359D1E.png"  transform="matrix(-1 0 0 1 452 14)">
	</image>
	<g>
		<g>
			<g>
				<path class="st0" d="M404.5,89.9c21.1,11.1,15.9,31.8,17.7,52.5c0.7,8.5,3.2,16.8,4.4,25.1c5.3-8.5,8.5-36.8,9.2-46.6
					c4.6-61.2-14.4-99.1-1.4-43.2c3,13-33.4-27.4-46.1-31.3c-18.1-5.6-13.1,10.8-8.8,30.2L404.5,89.9z"/>
			</g>
			<g>
				<path class="st2" d="M304.1,186.4c5,19.6,13.2,36.3,29.3,49.3c15.8,12.8,32.9,20.5,51.3,9c14.6-9.2,25.2-24,32.1-39.4
					c15.9-35.5,14-87.6-5.6-120.4c-21.5-36-72.2-35.2-96.2-1.3C295.6,111.3,296.1,154.8,304.1,186.4z"/>
			</g>
			<g>
				<path class="st4" d="M290.5,138.6c6.6,4.6,7.8,17.4,2.3,30.2"/>
				<path class="st4" d="M283.3,149.2c3.6-1,9.3-1.6,12.3,0.9"/>
			</g>
			<path class="st5" d="M335.3,164.3c-0.2,2.9,5,5.7,11.7,6.2s12.2-1.5,12.4-4.5c0.2-2.9-5-5.7-11.7-6.2
				C341.1,159.3,335.5,161.3,335.3,164.3z"/>
			<path class="st5" d="M394.3,171.9c-0.2,2.9,5,5.7,11.7,6.2c6.6,0.5,12.2-1.5,12.4-4.5c0.2-2.9-5-5.7-11.7-6.2
				C400,166.9,394.5,168.9,394.3,171.9z"/>
			<path class="st4" d="M386.6,134.8c-3.9,4-15.3,4.3,2.5,36.9c4.3,7.9-9.4,9-16.1,6.1"/>
			<g>
				<path class="st6" d="M413.9,135.9c-3.4-2.6-12.4-6.5-23.9-1.4"/>
			</g>
			<g>
				<path class="st6" d="M340,130.7c6.3-4.5,17.7-5,23.9,1"/>
			</g>
			<g>
				<path class="st0" d="M300.5,38.7c-4.8,0-1,17.1-5.4,19.7c-9.8,5.8-0.9,13.8-3.8,23.8c-3.7,12.6-6.5,25.4-8.8,38.3
					c-0.9,5.1-0.6,12.3-2.5,17.1c2.3-5.5,11.3-14.9,19-5.9c3.2,3.7,3.6,20.4,4.9,24.9c1.7,6.1,3.2,4,8.5,4.7
					c2.6-17,3.7-66.2,22.1-65.6c22.6,0.6,105.4,22.8,106.8-17.3c0.8-22.6-13.5-49.5-48.8-50.4C392.4,27.9,327,14.8,300.5,38.7z"/>
			</g>
			<path class="st4" d="M388,194.3c-7.7,10.9-19.3,5.2-25.6-3.3"/>
			<path class="st7" d="M398.4,150.7c-0.5,4,1.1,7.4,3.5,7.7s4.7-2.8,5.1-6.7s-1.1-7.4-3.5-7.7S398.8,146.8,398.4,150.7z"/>
			<path class="st7" d="M346.5,145c-0.5,4,1.1,7.4,3.5,7.7s4.7-2.8,5.1-6.7c0.4-4-1.1-7.4-3.5-7.7C349.3,138,347,141,346.5,145z"/>
		</g>
	</g>
</g>
<g>
	
		<image style="overflow:visible;opacity:0.25;enable-background:new    ;" width="214" height="354" xlink:href="63359D19.png"  transform="matrix(-1 0 0 1 349 264)">
	</image>
	<g>
		<path class="st1" d="M192.4,304.4c-41.2,14.9-36.5,37.1-36.5,37.1l4.5,198.1l0.3,36.6c40,36.6,170.2,16,170.2,16l7.5-52.6
			c2.4-81.8-9.5-172.2-9.5-172.2L285,274.7L192.4,304.4z"/>
	</g>
</g>
<g>
	
		<image style="overflow:visible;opacity:0.25;enable-background:new    ;" width="135" height="339" xlink:href="63359D1A.png"  transform="matrix(-1 0 0 1 516 277)">
	</image>
	<g>
		<path class="st1" d="M471.6,307.7c25.9,13.8,29.3,42,29.3,42l1.7,226h2.5c-35.3,29.9-81.5,16.8-81.5,16.8l-22.3-209.6l18.7-95.1
			L471.6,307.7z"/>
	</g>
</g>
<g>
	
		<image style="overflow:visible;opacity:0.25;enable-background:new    ;" width="62" height="284" xlink:href="63359D18.png"  transform="matrix(-1 0 0 1 468 292)">
	</image>
	<g>
		<path class="st8" d="M428.8,553.3c3-11.3,26.8-123.3,26.5-134.9c-0.4-12.2-17.3-14.5-26.5-24.1c9.9-1,23.4-2.1,26.2-9
			c2-5-14-74-14.8-80.2"/>
	</g>
</g>
<g>
	
		<image style="overflow:visible;opacity:0.25;enable-background:new    ;" width="76" height="283" xlink:href="63359D16.png"  transform="matrix(-1 0 0 1 328 293)">
	</image>
	<g>
		<path class="st8" d="M315.2,553.3c-3.9-11.1-36.7-121.5-37.3-133.1c-0.6-12.2,16.1-15.4,24.5-25.5c-9.9-0.5-23.5-0.9-26.8-7.5
			c-2.4-4.9,8-74.6,8.3-80.9"/>
	</g>
</g>
<g>
	
		<image style="overflow:visible;opacity:0.25;enable-background:new    ;" width="39" height="207" xlink:href="63359D09.png"  transform="matrix(-1 0 0 1 516 392)">
	</image>
	<g>
		<path class="st9" d="M502.6,575.7c0-57.3-2.5-113.5-2.5-170.8"/>
	</g>
</g>
<g>
	
		<image style="overflow:visible;opacity:0.25;enable-background:new    ;" width="114" height="132" xlink:href="63359D0A.png"  transform="matrix(-1 0 0 1 590 524)">
	</image>
	<g>
		<path class="st2" d="M568.1,620.7c-6,4.5-8.1-1.1-8.1-1.1c5.3-11.3,4.4-23.5,4.4-23.5c1,13.2-18.8,37.4-18.8,37.4
			c-10.4,4.4-9.1-4.5-9.1-4.5c16.6-16.8,15.8-31.4,15.8-31.4c-3.8,20-27,35.5-27,35.5c-16.4,6.3-9.2-5.2-9.2-5.2
			c16.8-13.5,21.7-29.7,21.7-29.7s-13.2,28.8-34.2,25.9c0.8,0.1,21.6-21.3,19.4-36.1v-8.9c0,0,0.7-4.9-3.5-1.7L512,583
			c0,0-9.3,8.7-14.6,3.5c-3.3-3.3,5.2-10.7,5.2-10.7s7.7-8.1,20.1-21.4c0,0,5.4-5,7.7-9c3.5-4.4,5.8-7.1,12.8-9
			c10-2.7,18.2-4.7,26.9,6.4c6.3,11.1,13,29.1,5.8,48.5C577.1,601.1,568.1,620.7,568.1,620.7z"/>
	</g>
</g>
<g>
	
		<image style="overflow:visible;opacity:0.25;enable-background:new    ;" width="72" height="141" xlink:href="63359D08.png"  transform="matrix(-1 0 0 1 278 303)">
	</image>
	<g>
		<path class="st9" d="M229.4,421.4c38.1-45.1,42.4-67.6,27.4-105.1"/>
	</g>
</g>
<g>
	
		<image style="overflow:visible;opacity:0.25;enable-background:new    ;" width="92" height="91" xlink:href="63359D0E.png"  transform="matrix(-1 0 0 1 177 492)">
	</image>
	<g>
		<path class="st9" d="M107.7,560.4c23.8-3,47-38.5,56.5-55.3"/>
	</g>
</g>
<g>
	
		<image style="overflow:visible;opacity:0.25;enable-background:new    ;" width="50" height="66" xlink:href="63359D0B.png"  transform="matrix(-1 0 0 1 147 533)">
	</image>
	<g>
		<path class="st9" d="M120.2,575.8c3.3-9.9,6.4-19.8,14.1-29.5"/>
	</g>
</g>
<g>
	
		<image style="overflow:visible;opacity:0.25;enable-background:new    ;" width="120" height="228" xlink:href="63359D2D.png"  transform="matrix(-1 0 0 1 489 266)">
	</image>
	<g>
		<g>
			<g>
				<path class="st7" d="M443.8,467.4c-0.1-1.7,1.2-4.9,3.3-5l11.6,1.1c2-0.1,3.8,1.1,3.9,2.8l0,0c0.1,1.7-1.4,3.1-3.4,3.2
					l-11.2,3.1C445.9,472.8,443.9,469,443.8,467.4L443.8,467.4z"/>
				<path class="st7" d="M429,468.2c-0.1-1.7-2-4.7-4.1-4.6l-11.3,2.4c-2,0.1-3.6,1.5-3.4,3.2l0,0c0.1,1.7,1.9,2.9,3.9,2.8l11.6,1.9
					C427.8,473.8,429.2,469.9,429,468.2L429,468.2z"/>
				<path class="st10" d="M458.9,466.9C474.8,466,477,450,477,450c2.1-33.2-37.8-81.3-37.8-81.3c-5.5-6.7-12.2-4.8-12.2-4.8
					s-7-1.1-11.3,6.1c0,0-31.5,52.1-23.9,84.8c0,0,4.9,15.6,20.8,14.7"/>
			</g>
			<path class="st10" d="M429.8,363.6c0-10.3-3.5-77.4-28.5-85.6"/>
		</g>
	</g>
</g>
<g>
	
		<image style="overflow:visible;opacity:0.25;enable-background:new    ;" width="84" height="167" xlink:href="63359D2F.png"  transform="matrix(-1 0 0 1 331 263)">
	</image>
	<g>
		<g>
			<path class="st11" d="M291.2,388.6c-13.4-35.1-18.4-56.5-19.7-65.2c-3-20.1-8.5-38.5,13.6-48.7"/>
			<g>
				<path class="st12" d="M301.2,407.4l-13.7-25.8l8.1-2.9c8.7-3.1,18.8,0.2,22.6,7.3c3.8,7.1-0.2,15.4-8.9,18.5L301.2,407.4z"/>
				<path class="st13" d="M288.1,381.4c8.7-3.1,18.8,0.2,22.6,7.3c3.8,7.1-0.2,15.4-8.9,18.5c-8.7,3.1-18.8-0.2-22.6-7.3
					C275.4,392.7,279.4,384.4,288.1,381.4z"/>
				<path class="st14" d="M291.5,387.8c4.4-1.5,9.4,0.1,11.3,3.7s-0.1,7.7-4.5,9.3s-9.4-0.1-11.3-3.6
					C285.2,393.5,287.2,389.4,291.5,387.8z"/>
			</g>
			<path class="st15" d="M293,408.2c18.9-1,21.9-11.7,18.8-19c-2.9-6.9-14.9-11-23.7-7.9"/>
			<path class="st15" d="M302.8,406.4c11.4-2.3,14.2-6.7,15.2-8.8c2.7-5.3,0.8-11.7-3.7-15.8c-5.1-4.7-11.6-5.1-21.6-1.5"/>
			<path class="st15" d="M281.4,400.9c-4.5-3.2-4.4-13.2,0.9-16.1"/>
		</g>
	</g>
</g>
<g>
	
		<image style="overflow:visible;opacity:0.25;enable-background:new    ;" width="309" height="412" xlink:href="63359D2C.png"  transform="matrix(-1 0 0 1 311 292)">
	</image>
	<g>
		<g>
			<g>
				<path class="st2" d="M32.3,538.5c18.8-33.9,125-206.2,147.2-220.8c62.8-45.8,86.8,26.6,84.1,31.5
					c-1.6,25.8-62.2,81.3-131.5,178.6c-8,11.3-42.4,51.3-59,42.7C36.2,554.3,32.3,538.5,32.3,538.5z"/>
			</g>
			<path class="st2" d="M97,518.7c1.2,21.1,103.9,101.5,118.9,116.5l-14.8,14C84,592.8,65.4,616.4,22.9,548.9
				C24.3,496.8,97,518.8,97,518.7z"/>
			<path class="st2" d="M254.7,640.1c24.6,0.4,45.2,17.2,45.2,17.2c9,12.5-5.6,8.1-5.6,8.1c-17.8-11.9-37.8-13.7-37.8-13.7"/>
			<g>
				<ellipse class="st2" cx="191.7" cy="629" rx="17.7" ry="14.5"/>
				<path class="st2" d="M177.2,640c0,0,52.8,46,56.8,37.1s11.5-6.3,18.9-11.2c7.3-4.8,2-12.1,11-13.3c9-1.3,13.3-6.2,9.9-10.5
					c-3.4-4.5-12.1-10.5-12.1-10.5s-3-11.1-13.4-12.3c-10.4-1.2-34.7,6.8-45,0.3L177.2,640z"/>
			</g>
		</g>
	</g>
</g>
<g>
	
		<image style="overflow:visible;opacity:0.25;enable-background:new    ;" width="272" height="382" xlink:href="63359D2B.png"  transform="matrix(-1 0 0 1 273 284)">
	</image>
	<g>
		<path class="st1" d="M160.5,323.6L23.4,531.8c-20.8,63.7,137,113.9,137,113.9c48.1-2.6,55.4-34.4,55.4-34.4L130,549.9l127.2-164.4
			c21-80.5-29.9-91.5-29.9-91.5C173,305.4,160.5,323.6,160.5,323.6z"/>
	</g>
</g>
</svg>
